<?xml version="1.0" standalone="no"?>
<!DOCTYPE svg PUBLIC "-//W3C//DTD SVG 20010904//EN"
 "http://www.w3.org/TR/2001/REC-SVG-20010904/DTD/svg10.dtd">
<svg version="1.0" xmlns="http://www.w3.org/2000/svg"
 width="305.000000pt" height="305.000000pt" viewBox="0 0 305.000000 305.000000"
 preserveAspectRatio="xMidYMid meet">
<metadata>
Created by potrace 1.14, written by Peter Selinger 2001-2017
</metadata>
<g transform="translate(0.000000,305.000000) scale(0.100000,-0.100000)"
fill="#000000" stroke="none">
<path d="M1387 2963 c-3 -5 -15 -42 -27 -83 -43 -150 -35 -138 -103 -159 l-62
-19 -50 36 c-27 20 -70 51 -94 69 -24 18 -49 30 -55 26 -6 -3 -39 -26 -72 -49
l-62 -43 39 -106 c21 -59 39 -110 39 -116 0 -5 -9 -19 -19 -31 -11 -13 -28
-34 -38 -47 -18 -22 -24 -23 -139 -22 l-119 2 -28 -70 c-15 -39 -27 -73 -27
-76 0 -2 40 -36 89 -75 49 -38 92 -77 95 -86 3 -8 6 -37 6 -62 l0 -47 -91 -64
-91 -64 6 -51 c3 -28 11 -68 16 -88 10 -35 13 -37 58 -41 26 -2 -84 -4 -244
-5 -362 -2 -381 -5 -337 -55 13 -15 15 -21 6 -24 -22 -8 -15 -23 39 -90 41
-52 56 -64 74 -60 14 2 25 -2 28 -9 3 -8 -1 -14 -9 -14 -24 0 -18 -13 36 -73
42 -48 56 -57 84 -57 42 0 66 -25 33 -34 -21 -6 -18 -11 44 -71 62 -61 68 -65
92 -54 20 9 29 9 41 -1 14 -11 14 -15 0 -30 -13 -15 -11 -20 23 -51 79 -73 79
-73 105 -56 32 21 55 3 31 -24 -15 -16 -13 -20 28 -49 61 -45 66 -46 98 -15
32 31 48 29 31 -3 -18 -34 -14 -38 47 -50 52 -10 58 -9 75 10 9 11 17 26 17
33 0 7 6 18 14 24 12 10 13 7 4 -23 -6 -20 -9 -39 -5 -42 3 -4 33 13 66 37 45
33 62 53 69 79 6 19 10 27 11 18 1 -21 12 -23 29 -6 8 8 23 3 59 -22 l48 -33
-33 -69 -33 -69 -47 2 -47 3 2 -44 c5 -148 6 -176 12 -185 3 -5 4 -22 2 -37
-2 -22 3 -30 24 -38 32 -12 85 -13 85 -1 0 5 -7 14 -15 21 -24 20 -19 41 9 34
19 -4 34 3 66 32 23 21 39 43 36 51 -3 7 1 13 9 13 8 0 15 -7 15 -15 0 -8 9
-20 20 -27 11 -7 20 -18 20 -23 0 -6 13 -26 29 -45 l29 -35 81 85 81 85 -3
-35 c-2 -32 2 -37 45 -60 39 -21 48 -30 48 -52 0 -32 1 -32 69 -17 l49 10 0
77 c0 42 -2 109 -5 149 l-5 72 -55 -2 -55 -2 -29 54 c-16 30 -29 55 -29 56 0
2 23 17 50 35 50 32 50 33 35 57 -23 34 -14 38 15 8 28 -30 37 -31 43 -7 3 9
5 0 6 -21 1 -37 3 -39 67 -67 77 -35 84 -36 84 -12 0 11 7 6 20 -15 21 -36 9
-34 153 -24 17 1 17 3 1 33 -12 22 -13 33 -5 36 6 2 8 9 5 15 -3 7 9 -5 28
-25 l33 -37 68 41 68 41 -23 24 c-19 20 -20 25 -8 33 8 6 22 7 30 4 40 -16 50
-13 108 36 34 29 62 56 62 60 0 5 -9 12 -21 15 -22 7 -20 32 2 27 61 -15 63
-14 118 41 53 54 59 77 20 77 -11 0 -18 4 -15 9 3 5 22 5 42 1 34 -8 37 -6
100 58 l64 67 -29 10 c-23 8 -26 12 -16 22 7 6 22 9 33 6 15 -3 35 7 67 33 42
34 46 41 43 77 -2 31 2 42 21 56 13 10 21 23 18 28 -4 7 -124 13 -307 18 -285
7 -300 8 -295 25 3 11 1 27 -6 38 -9 15 -9 29 4 65 l16 47 -90 62 c-49 34 -89
67 -89 74 0 7 43 39 96 71 95 58 95 58 90 93 -20 134 -27 163 -45 206 l-21 47
-114 -6 c-109 -5 -115 -4 -129 16 -13 20 -11 29 19 100 19 43 34 85 34 92 0 7
-14 25 -30 39 -27 22 -29 28 -20 47 13 24 15 22 -64 83 -32 25 -64 42 -70 39
-6 -4 -36 -26 -66 -49 -104 -78 -103 -78 -159 -63 l-50 12 -18 76 c-16 63 -23
77 -41 79 -15 2 -23 13 -28 36 -6 32 -7 34 -66 40 -80 8 -116 8 -121 -1z
m-217 -1598 c11 -13 7 -15 -26 -15 -36 1 -38 2 -20 15 25 19 31 19 46 0z m-3
-327 c-3 -8 -6 -5 -6 6 -1 11 2 17 5 13 3 -3 4 -12 1 -19z m96 -433 c-3 -9 -8
-14 -10 -11 -3 3 -2 9 2 15 9 16 15 13 8 -4z"/>
<path d="M545 710 c10 -17 -54 -110 -71 -103 -22 8 -16 -6 13 -31 26 -23 25
-50 -2 -39 -22 8 -18 -1 15 -37 24 -26 28 -35 19 -51 -8 -15 -5 -24 15 -44 14
-14 32 -25 40 -25 20 0 45 26 52 55 3 13 18 32 32 41 l26 17 -22 -37 c-21 -35
-22 -56 -2 -56 5 0 12 9 15 20 3 11 13 20 21 20 11 0 12 -4 4 -19 -18 -35 -13
-54 15 -49 19 4 25 1 25 -13 0 -11 6 -19 13 -19 23 0 38 16 31 33 -5 13 -2 16
10 11 12 -5 13 -10 5 -26 -16 -30 -4 -50 26 -42 15 4 25 2 25 -5 0 -6 18 -11
41 -11 22 0 38 4 35 9 -3 5 -16 7 -29 5 -21 -5 -21 -4 -3 8 49 34 57 44 51 61
-8 20 -35 23 -53 5 -6 -6 -14 -9 -18 -6 -3 4 8 14 24 22 37 19 44 29 36 50 -7
18 -39 22 -49 6 -4 -6 -11 -8 -16 -4 -5 3 -7 9 -4 14 3 5 1 11 -4 14 -5 3 -7
15 -4 26 6 24 0 25 -31 5 -16 -11 -22 -22 -19 -35 4 -14 0 -20 -12 -20 -12 0
-15 5 -10 18 15 36 11 47 -17 45 -15 -1 -27 1 -27 5 4 25 -3 34 -21 29 -11 -3
-18 0 -17 7 1 6 -10 11 -24 11 -18 0 -25 4 -22 15 3 10 -12 22 -47 38 -53 24
-63 40 -30 49 25 7 25 12 3 29 -21 16 -47 18 -38 4z m-1 -109 c-10 -16 -21
-28 -26 -25 -5 3 1 19 13 35 27 38 37 30 13 -10z m57 -44 l-21 -21 0 21 c0 12
8 26 18 32 26 15 28 -7 3 -32z m69 -3 c0 -8 -19 -13 -24 -6 -3 5 1 9 9 9 8 0
15 -2 15 -3z m-48 -56 c-8 -8 -9 -4 -5 13 4 13 8 18 11 10 2 -7 -1 -18 -6 -23z
m83 22 c-3 -5 -11 -10 -16 -10 -6 0 -7 5 -4 10 3 6 11 10 16 10 6 0 7 -4 4
-10z m-146 -21 c-7 -14 -14 -18 -21 -11 -13 13 -2 32 18 32 12 0 13 -4 3 -21z
m201 -5 c0 -2 -7 -4 -15 -4 -8 0 -15 4 -15 10 0 5 7 7 15 4 8 -4 15 -8 15 -10z
m81 -51 c-8 -15 -10 -15 -11 -2 0 17 10 32 18 25 2 -3 -1 -13 -7 -23z m-251
-13 c-11 -21 -35 -27 -45 -10 -10 16 4 30 31 30 22 0 23 -3 14 -20z m312 -2
c-7 -7 -12 -8 -12 -2 0 14 12 26 19 19 2 -3 -1 -11 -7 -17z m-146 -25 c-10
-11 -37 -12 -30 -2 3 5 12 9 21 9 9 0 13 -3 9 -7z m99 -54 c-4 -5 -13 -9 -22
-9 -13 0 -13 3 -3 15 13 15 35 11 25 -6z"/>
<path d="M2430 695 c-7 -8 -16 -13 -20 -10 -4 3 -23 -12 -41 -33 -18 -20 -38
-36 -45 -34 -7 1 -18 -6 -24 -17 -6 -12 -16 -18 -25 -15 -8 4 -18 -1 -21 -10
-3 -9 -15 -16 -25 -16 -10 0 -19 -4 -19 -10 0 -5 -8 -10 -19 -10 -31 0 -46
-27 -34 -60 8 -20 8 -31 0 -39 -19 -19 -27 -12 -27 22 0 43 -9 51 -32 30 -10
-9 -18 -12 -18 -8 0 5 -14 -4 -31 -21 l-32 -29 6 41 c4 37 3 41 -14 37 -22 -6
-47 -33 -31 -33 18 0 13 -122 -5 -142 -15 -17 -14 -18 5 -18 12 0 22 -4 22
-10 0 -5 7 -10 15 -10 12 0 15 14 15 64 0 50 4 65 16 70 14 5 16 1 10 -33 -3
-23 -2 -42 4 -46 5 -3 10 -17 10 -31 0 -13 5 -24 10 -24 6 0 10 12 10 28 0 15
5 34 10 42 7 11 10 6 10 -22 0 -43 17 -59 36 -34 7 10 17 15 23 12 6 -4 19 2
29 12 23 23 42 17 42 -15 0 -19 4 -24 22 -21 12 2 23 9 26 17 3 8 0 11 -7 7
-17 -11 -14 31 5 59 8 13 19 45 24 72 7 46 8 46 9 11 1 -43 19 -59 38 -33 15
22 18 49 3 40 -6 -3 -10 5 -10 19 0 42 18 39 25 -4 10 -58 31 -46 27 16 -1 27
2 56 8 64 7 12 10 8 10 -16 0 -16 6 -39 14 -50 13 -17 16 -17 30 -4 8 8 18 29
21 45 l7 30 -22 -25 c-12 -14 -19 -18 -16 -10 27 82 29 92 18 99 -6 4 -10 20
-9 35 2 33 -14 44 -33 21z m-29 -88 c-13 -13 -15 1 -4 30 7 17 8 17 11 -1 2
-10 -1 -23 -7 -29z m-50 -60 c-8 -8 -11 -4 -11 14 0 33 14 47 18 19 2 -12 -1
-27 -7 -33z m-44 -14 c-3 -10 -5 -4 -5 12 0 17 2 24 5 18 2 -7 2 -21 0 -30z
m-46 -30 c-9 -16 -10 -15 -11 8 0 14 3 29 8 33 12 12 14 -22 3 -41z m-41 -13
c0 -11 -6 -20 -13 -20 -7 0 -18 9 -25 20 -11 18 -10 20 13 20 18 0 25 -5 25
-20z m-120 -56 c0 -14 -4 -23 -9 -20 -5 3 -7 15 -4 26 7 28 13 25 13 -6z m180
-9 c0 -14 -4 -25 -10 -25 -11 0 -14 33 -3 43 11 11 13 8 13 -18z m-50 -22 c0
-37 0 -37 -16 -15 -16 23 -13 52 6 52 5 0 10 -17 10 -37z m-59 -13 c10 -6 19
-18 19 -28 0 -14 -2 -14 -9 -3 -8 12 -12 12 -25 2 -14 -12 -16 -10 -16 13 0
29 3 31 31 16z"/>
<path d="M2300 664 c0 -17 22 -14 28 4 2 7 -3 12 -12 12 -9 0 -16 -7 -16 -16z"/>
<path d="M800 565 c0 -8 5 -15 10 -15 6 0 10 7 10 15 0 8 -4 15 -10 15 -5 0
-10 -7 -10 -15z"/>
<path d="M990 425 c0 -7 -6 -15 -12 -18 -10 -3 -10 -7 -1 -17 6 -7 9 -19 6
-26 -3 -8 1 -14 8 -14 11 0 11 -2 0 -9 -23 -15 5 -41 44 -41 28 0 33 3 33 25
0 14 -4 25 -7 25 -4 0 -6 14 -5 32 1 17 -3 36 -9 42 -17 17 -57 17 -57 1z"/>
<path d="M1136 425 c8 -21 -25 -113 -44 -124 -21 -12 -14 -19 29 -28 31 -6 33
-5 20 10 -12 15 -11 17 8 17 12 0 21 6 21 14 0 8 5 18 11 22 12 7 8 -20 -7
-60 -4 -10 -1 -16 9 -16 9 0 19 9 22 20 3 11 10 20 15 20 5 0 7 -7 4 -15 -4
-8 -3 -22 0 -31 6 -15 8 -15 31 0 23 15 25 15 25 0 0 -28 24 -9 31 25 4 18 12
38 18 44 13 13 14 2 2 -39 -12 -41 1 -63 24 -44 13 11 18 11 24 1 15 -23 55
-8 71 26 19 42 30 42 30 -1 0 -49 13 -51 48 -11 l31 34 3 -27 c2 -22 8 -27 33
-27 16 -1 36 6 46 16 15 15 17 15 27 0 9 -14 13 -14 33 6 21 21 23 21 36 5 12
-16 15 -15 38 11 29 33 32 50 8 45 -10 -2 -17 -10 -15 -16 1 -7 -2 -12 -8 -12
-16 0 -12 15 10 35 23 21 27 65 6 65 -18 0 -46 -38 -46 -61 0 -9 -9 -24 -20
-34 -11 -10 -20 -15 -20 -10 0 4 8 13 17 20 14 11 15 16 5 28 -10 12 -10 16 0
21 10 5 10 7 1 12 -7 3 -10 11 -7 19 3 7 1 16 -5 19 -11 7 -43 -52 -35 -66 9
-14 -5 -58 -17 -58 -8 0 -9 15 -5 45 5 31 4 45 -4 45 -22 0 -50 -21 -65 -48
-12 -22 -15 -23 -14 -7 2 34 -1 45 -11 45 -5 0 -10 -15 -10 -32 0 -18 -7 -42
-15 -52 -14 -19 -15 -19 -15 8 0 15 5 36 10 46 13 24 -1 33 -33 21 -16 -6 -28
-6 -35 1 -18 18 -53 -3 -73 -45 l-20 -42 7 49 c6 47 6 49 -15 43 -11 -3 -24
-1 -27 4 -3 6 -16 4 -30 -6 -22 -14 -24 -14 -24 1 0 11 -6 15 -20 11 -11 -3
-20 -1 -20 4 0 6 -15 7 -35 3 -28 -5 -35 -3 -35 9 0 9 7 22 15 31 22 21 19 26
-15 26 -22 0 -28 -4 -24 -15z m96 -107 c-7 -7 -12 -8 -12 -2 0 14 12 26 19 19
2 -3 -1 -11 -7 -17z m194 -55 c-3 -8 -10 -11 -16 -8 -14 9 -13 42 3 68 12 21
12 21 15 -11 2 -19 1 -41 -2 -49z m182 31 c-12 -37 -12 -38 -16 -11 -2 16 2
35 9 43 18 22 20 12 7 -32z m-318 17 c0 -23 -16 -36 -25 -21 -9 14 1 40 15 40
5 0 10 -9 10 -19z"/>
<path d="M1870 415 c0 -10 -6 -12 -17 -8 -16 6 -16 5 -4 -10 9 -11 10 -17 2
-17 -6 0 -11 -7 -11 -15 0 -8 5 -15 11 -15 5 0 8 -4 4 -9 -3 -5 0 -13 6 -17 8
-4 7 -9 -2 -15 -9 -6 3 -9 34 -9 35 0 47 4 47 15 0 8 -4 15 -9 15 -5 0 -11 9
-14 20 -3 11 -1 20 4 20 5 0 9 7 9 15 0 8 -4 15 -10 15 -5 0 -10 6 -10 13 0 7
-9 13 -20 14 -11 1 -20 -4 -20 -12z"/>
</g>
</svg>
